<?xml version="1.0" standalone="no"?>
<!DOCTYPE svg PUBLIC "-//W3C//DTD SVG 20010904//EN"
 "http://www.w3.org/TR/2001/REC-SVG-20010904/DTD/svg10.dtd">
<svg version="1.0" xmlns="http://www.w3.org/2000/svg"
 width="600.000000pt" height="283.000000pt" viewBox="0 0 600.000000 283.000000"
 preserveAspectRatio="xMidYMid meet">
<g transform="translate(0.000000,283.000000) scale(0.100000,-0.100000)"
fill="#000000" stroke="none">
<path d="M997 2004 c-372 -57 -656 -244 -737 -485 -30 -89 -25 -192 15 -269
66 -131 231 -234 455 -286 92 -21 411 -30 552 -14 470 50 1103 242 1813 550
766 332 1539 513 2008 472 170 -15 278 -42 394 -98 104 -50 177 -114 212 -186
110 -229 -101 -512 -475 -637 -360 -121 -825 -88 -1306 92 -134 50 -139 52
-135 77 5 23 -6 32 -136 113 -200 123 -224 139 -206 133 46 -14 472 -116 484
-116 28 0 15 -15 -40 -45 -30 -16 -55 -35 -55 -42 0 -21 18 -16 96 28 71 39
91 55 81 65 -7 7 -652 164 -673 164 -37 0 5 -33 201 -156 115 -71 210 -135
212 -140 11 -32 -57 6 -272 152 -144 99 -243 160 -249 154 -5 -5 46 -103 129
-247 75 -131 139 -240 141 -243 3 -2 15 2 27 9 12 8 57 36 99 62 l77 49 12
-40 c16 -53 34 -51 48 5 l11 45 38 -19 c59 -29 266 -100 388 -131 592 -153
1138 -64 1420 231 70 74 106 132 128 208 73 248 -117 452 -490 528 -124 25
-479 25 -649 -1 -431 -63 -894 -195 -1360 -386 -523 -215 -643 -262 -810 -323
-1008 -364 -1743 -405 -2061 -114 -78 71 -109 140 -109 243 0 73 4 87 38 157
67 135 217 259 401 332 388 153 910 116 1434 -100 120 -50 125 -51 120 -29 -6
32 -358 159 -559 203 -234 50 -523 65 -712 35z m2458 -646 c61 -41 140 -96
177 -121 l68 -45 -89 -56 c-90 -57 -101 -62 -101 -47 0 4 -47 90 -105 190 -58
99 -105 184 -105 188 0 3 10 -3 23 -14 12 -11 72 -54 132 -95z m295 -184 c0
-8 -5 -12 -10 -9 -6 4 -8 11 -5 16 9 14 15 11 15 -7z"/>
<path d="M337 1769 c7 -7 15 -10 18 -7 3 3 -2 9 -12 12 -14 6 -15 5 -6 -5z"/>
<path d="M354 1568 l-19 -23 23 19 c21 18 27 26 19 26 -2 0 -12 -10 -23 -22z"/>
<path d="M5456 1222 c-3 -5 1 -9 9 -9 8 0 12 4 9 9 -3 4 -7 8 -9 8 -2 0 -6 -4
-9 -8z"/>
</g>
</svg>
